<?xml version="1.0" encoding="UTF-8"?>
<svg xmlns="http://www.w3.org/2000/svg" xmlns:xlink="http://www.w3.org/1999/xlink" width="642" height="133" viewBox="0 0 642 133">
<defs>
<g>
<g id="glyph-0-0">
<path d="M 17.601562 -27.699219 L 32.699219 -27.699219 C 36.699219 -27.699219 38.699219 -25.300781 38.898438 -21.199219 L 40.5 -21.199219 L 40.5 -37.300781 L 38.898438 -37.300781 C 38.398438 -32.699219 36.800781 -30.5 32.5 -30.5 L 17.601562 -30.5 L 17.601562 -54.5 L 32.199219 -54.5 C 38.398438 -54.5 40.101562 -54.101562 41.5 -47.101562 L 42.800781 -47.101562 L 42.800781 -57.300781 L 3.5 -57.300781 L 3.5 -55.601562 C 8.300781 -55.601562 10 -53.699219 10 -46.5 L 10 -10.800781 C 10 -3.699219 8.300781 -1.699219 3.5 -1.699219 L 3.5 0 L 24.101562 0 L 24.101562 -1.699219 C 19.300781 -1.699219 17.601562 -3.800781 17.601562 -10.800781 Z M 17.601562 -27.699219 "/>
</g>
<g id="glyph-0-1">
<path d="M 14.800781 -26.101562 C 18 -29.199219 20 -30.398438 22.300781 -30.398438 C 24.699219 -30.398438 27.800781 -28.898438 30.699219 -27.300781 L 33.398438 -33.601562 C 31.601562 -35.199219 28.898438 -36.398438 26.898438 -36.398438 C 24.5 -36.398438 21.398438 -34.398438 14.800781 -28.699219 L 14.800781 -36.398438 L 13.101562 -36.398438 L 0.699219 -35.300781 L 0.699219 -33.601562 C 6.699219 -33.601562 8 -33 8 -27.800781 L 8 -8.5 C 8 -3.101562 7.398438 -1.699219 2 -1.699219 L 2 0 L 20.699219 0 L 20.699219 -1.699219 C 16 -1.699219 14.800781 -2.800781 14.800781 -6.699219 Z M 14.800781 -26.101562 "/>
</g>
<g id="glyph-0-2">
<path d="M 42.300781 -17.601562 C 42.300781 -28.398438 34 -36.398438 22.898438 -36.398438 C 11.800781 -36.398438 3.5 -28.398438 3.5 -17.601562 C 3.5 -6.898438 11.800781 1.101562 22.898438 1.101562 C 34 1.101562 42.300781 -6.898438 42.300781 -17.601562 Z M 34.898438 -17.601562 C 34.898438 -9 31.300781 -0.898438 22.898438 -0.898438 C 14.699219 -0.898438 10.898438 -8.5 10.898438 -17.601562 C 10.898438 -27.800781 15.398438 -34.398438 22.898438 -34.398438 C 31.101562 -34.398438 34.898438 -26.5 34.898438 -17.601562 Z M 34.898438 -17.601562 "/>
</g>
<g id="glyph-0-3">
<path d="M 63.699219 -24.398438 C 63.699219 -33.5 56.699219 -36.398438 51.699219 -36.398438 C 46.898438 -36.398438 42.398438 -33.699219 38.601562 -28.398438 C 36.800781 -33.800781 32.199219 -36.398438 27.5 -36.398438 C 22.800781 -36.398438 17.800781 -33.5 14.898438 -29 L 14.699219 -29 L 14.699219 -36.398438 L 13 -36.398438 L 0.800781 -35.300781 L 0.800781 -33.601562 L 3 -33.601562 C 6.199219 -33.601562 7.898438 -32.300781 7.898438 -28.398438 L 7.898438 -7.398438 C 7.898438 -2.101562 6.101562 -1.699219 1.898438 -1.699219 L 1.898438 0 L 20.699219 0 L 20.699219 -1.601562 C 16.199219 -1.601562 14.699219 -2.898438 14.699219 -6.5 L 14.699219 -25.800781 C 17 -29.800781 20.898438 -32.601562 24.898438 -32.601562 C 28.699219 -32.601562 32.398438 -30.199219 32.398438 -24.898438 L 32.398438 -8.5 C 32.398438 -2.199219 31.300781 -1.699219 26.5 -1.699219 L 26.5 0 L 45.101562 0 L 45.101562 -1.699219 C 40.300781 -1.699219 39.199219 -3.101562 39.199219 -6.800781 L 39.199219 -25.800781 C 42.300781 -30.5 45.398438 -32.601562 49.199219 -32.601562 C 53.898438 -32.601562 56.898438 -29.898438 56.898438 -25.300781 L 56.898438 -8.5 C 56.898438 -2.699219 55.898438 -1.699219 50.898438 -1.699219 L 50.898438 0 L 69.699219 0 L 69.699219 -1.699219 C 64.898438 -1.699219 63.699219 -3 63.699219 -6.601562 Z M 63.699219 -24.398438 "/>
</g>
<g id="glyph-0-4">
</g>
<g id="glyph-0-5">
<path d="M 17.898438 -26.800781 C 22.101562 -26.300781 24.199219 -26.199219 26.699219 -26.199219 C 39.699219 -26.199219 46.898438 -31.5 46.898438 -41 C 46.898438 -48.898438 40.5 -57.300781 24.699219 -57.300781 L 3.800781 -57.300781 L 3.800781 -55.601562 C 8.601562 -55.601562 10.300781 -53.5 10.300781 -46.5 L 10.300781 -10.601562 C 10.300781 -3 7.800781 -1.699219 3.800781 -1.699219 L 3.800781 0 L 24.398438 0 L 24.398438 -1.699219 C 19.601562 -1.699219 17.898438 -3.699219 17.898438 -10.800781 Z M 17.898438 -55.101562 L 25 -55.101562 C 35.5 -55.101562 38.898438 -46.898438 38.898438 -40.800781 C 38.898438 -33 33.5 -28.398438 25 -28.398438 C 22 -28.398438 20.5 -28.5 17.898438 -29.398438 Z M 17.898438 -55.101562 "/>
</g>
<g id="glyph-0-6">
<path d="M 8.800781 -8.398438 C 8.800781 -3.199219 7.699219 -1.699219 4.101562 -1.699219 L 2.300781 -1.699219 L 2.300781 0 L 22 0 L 22 -1.699219 L 21.101562 -1.699219 C 16.800781 -1.699219 15.601562 -2.898438 15.601562 -6.699219 L 15.601562 -62.800781 L 13.898438 -62.800781 L 1.699219 -61.601562 L 1.699219 -59.898438 L 4 -59.898438 C 7.699219 -59.898438 8.800781 -58.5 8.800781 -55.101562 Z M 8.800781 -8.398438 "/>
</g>
<g id="glyph-0-7">
<path d="M 29.398438 -23.398438 C 29.398438 -33 22.5 -36.398438 16.601562 -36.398438 C 10.199219 -36.398438 5 -32.101562 3.5 -25.5 L 5.300781 -25 C 6.800781 -30.101562 10.699219 -32.601562 14.699219 -32.601562 C 19.699219 -32.601562 22.601562 -29 22.601562 -24 L 22.601562 -21.398438 C 16.800781 -18 3 -18.398438 3 -8.300781 C 3 -3.101562 7.601562 1.101562 13.101562 1.101562 C 16.800781 1.101562 19.101562 -0.101562 22.601562 -3.898438 C 23.800781 -0.398438 25.601562 1.101562 28.601562 1.101562 C 32.601562 1.101562 35.199219 -1.699219 35.5 -6.101562 L 33.800781 -6.101562 C 33 -3.601562 32.5 -2.699219 31.398438 -2.699219 C 29.800781 -2.699219 29.398438 -4.101562 29.398438 -8.199219 Z M 22.601562 -7.199219 C 21.199219 -4.199219 17.398438 -2.699219 15.300781 -2.699219 C 12.398438 -2.699219 9.898438 -5.601562 9.898438 -9.199219 C 9.898438 -16.398438 15.898438 -16.300781 22.601562 -19.199219 Z M 22.601562 -7.199219 "/>
</g>
<g id="glyph-0-8">
<path d="M 15.101562 -47.398438 L 13.398438 -47.398438 C 10.398438 -41.300781 6.398438 -37 1.601562 -34.601562 L 1.601562 -32.898438 L 8.300781 -32.898438 L 8.300781 -9.199219 C 8.300781 -3.101562 12.5 1.101562 18.5 1.101562 C 22.5 1.101562 26.101562 -0.898438 29.199219 -4.800781 L 28.101562 -6.101562 C 26 -3.699219 24.101562 -2.699219 21.5 -2.699219 C 17.601562 -2.699219 15.101562 -5.199219 15.101562 -10.101562 L 15.101562 -32.898438 L 27.398438 -32.898438 L 27.398438 -35.5 L 15.101562 -35.5 Z M 15.101562 -47.398438 "/>
</g>
<g id="glyph-0-9">
<path d="M 36.699219 -21.601562 C 37.199219 -29.800781 29.601562 -36.398438 21.398438 -36.398438 C 11.398438 -36.398438 3.601562 -28 3.601562 -17.300781 C 3.601562 -6.601562 11.601562 1.101562 22.699219 1.101562 C 28.898438 1.101562 33 -1 37.300781 -6.5 L 37.300781 -9.101562 C 32.199219 -3.398438 29.699219 -1.699219 24.800781 -1.699219 C 20 -1.699219 10.5 -5.699219 10.699219 -21.601562 Z M 10.699219 -23.300781 C 11.101562 -29.898438 14.601562 -34.300781 20.5 -34.300781 C 25 -34.300781 30.300781 -31.101562 30 -23.300781 Z M 10.699219 -23.300781 "/>
</g>
<g id="glyph-0-10">
<path d="M 55.5 -15.398438 C 55.5 -20.398438 57 -23.101562 62.601562 -23.101562 L 62.601562 -24.800781 L 39.398438 -24.800781 L 39.398438 -23.101562 L 41.601562 -23.101562 C 46.300781 -23.101562 47.898438 -20.601562 47.898438 -13.601562 L 47.898438 -7.398438 C 47.898438 -2.300781 42.398438 -1.300781 38.300781 -1.300781 C 24.699219 -1.300781 14.699219 -13.699219 14.699219 -30.5 C 14.699219 -46.199219 23.601562 -56.5 35.398438 -56.5 C 43.199219 -56.5 52.898438 -51.898438 54.398438 -41 L 56 -41 L 56 -57.898438 L 54.199219 -57.898438 C 53.601562 -56.5 52.800781 -56 51 -56 C 46.601562 -56 43.5 -58.699219 35.398438 -58.699219 C 21.300781 -58.699219 5.898438 -47.300781 5.898438 -27 C 5.898438 -13.800781 14.300781 1.398438 39.5 1.398438 C 42.101562 1.398438 52.300781 0.898438 55.5 0 Z M 55.5 -15.398438 "/>
</g>
<g id="glyph-0-11">
<path d="M 26.199219 -25.5 L 26.199219 -36.398438 L 24.5 -36.398438 C 24 -35.199219 23.300781 -34.699219 22.398438 -34.699219 C 20 -34.699219 18.898438 -36.398438 15.199219 -36.398438 C 9.300781 -36.398438 4.398438 -31.699219 4.398438 -26.199219 C 4.398438 -14.199219 23.199219 -16.898438 23.199219 -7 C 23.199219 -3.5 20.5 -0.898438 17 -0.898438 C 12.601562 -0.898438 7.101562 -3.800781 5.601562 -11.199219 L 3.898438 -11.199219 L 3.898438 0.898438 L 5.601562 0.898438 C 5.699219 -0.398438 6.601562 -1.5 7.898438 -1.5 C 9.601562 -1.5 13 1.101562 16.898438 1.101562 C 23 1.101562 28.101562 -3.898438 28.101562 -9.800781 C 28.101562 -23 9.5 -20.601562 9.5 -29.601562 C 9.5 -32.5 11.898438 -34.398438 15.398438 -34.398438 C 19.601562 -34.398438 23.5 -31.398438 24.199219 -25.5 Z M 26.199219 -25.5 "/>
</g>
</g>
</defs>
<g fill="rgb(7.843137%, 9.019608%, 11.372549%)" fill-opacity="1">
<use xlink:href="#glyph-0-0" x="16" y="79.796875"/>
<use xlink:href="#glyph-0-1" x="61.796875" y="79.796875"/>
<use xlink:href="#glyph-0-2" x="95.203125" y="79.796875"/>
<use xlink:href="#glyph-0-3" x="141" y="79.796875"/>
<use xlink:href="#glyph-0-4" x="212.90625" y="79.796875"/>
<use xlink:href="#glyph-0-5" x="235.40625" y="79.796875"/>
<use xlink:href="#glyph-0-6" x="285.40625" y="79.796875"/>
<use xlink:href="#glyph-0-7" x="309.40625" y="79.796875"/>
<use xlink:href="#glyph-0-8" x="344.90625" y="79.796875"/>
<use xlink:href="#glyph-0-9" x="374.109375" y="79.796875"/>
<use xlink:href="#glyph-0-4" x="414.703125" y="79.796875"/>
<use xlink:href="#glyph-0-10" x="437.203125" y="79.796875"/>
<use xlink:href="#glyph-0-6" x="502.796875" y="79.796875"/>
<use xlink:href="#glyph-0-7" x="526.796875" y="79.796875"/>
<use xlink:href="#glyph-0-11" x="563.296875" y="79.796875"/>
<use xlink:href="#glyph-0-11" x="594.59375" y="79.796875"/>
</g>
</svg>
