<?xml version="1.0" encoding="UTF-8"?>
<svg xmlns="http://www.w3.org/2000/svg" xmlns:xlink="http://www.w3.org/1999/xlink" viewBox="17.20 16.00 1336.52 94.10">
<defs>
<g>
<g id="glyph-0-0">
<path d="M 41.5 -7.300781 C 42.800781 -3.398438 40.898438 -1.699219 37 -1.699219 L 37 0 L 57.199219 0 L 57.199219 -1.699219 C 52.101562 -1.699219 50.699219 -3.300781 49 -8.601562 L 32.398438 -57.898438 L 26.5 -57.898438 L 10.699219 -10.699219 C 8.898438 -5.398438 7.601562 -2.5 2.199219 -1.699219 L 2.199219 0 L 17 0 L 17 -1.699219 C 11 -1.800781 12 -6.101562 13.898438 -11.699219 L 17.800781 -23.199219 L 36.300781 -23.199219 Z M 35 -26.699219 L 18.898438 -26.699219 L 26.898438 -51 L 27.101562 -51 Z M 35 -26.699219 "/>
</g>
<g id="glyph-0-1">
</g>
<g id="glyph-0-2">
<path d="M 48.898438 -27.398438 L 48.898438 -10.800781 C 48.898438 -3.199219 47 -1.699219 42.5 -1.699219 L 42.5 0 L 63 0 L 63 -1.699219 C 58.101562 -1.699219 56.5 -4 56.5 -10.800781 L 56.5 -46.5 C 56.5 -53.300781 58.101562 -55.601562 63 -55.601562 L 63 -57.300781 L 42.5 -57.300781 L 42.5 -55.601562 C 47.398438 -55.601562 48.898438 -53.5 48.898438 -46.5 L 48.898438 -30.199219 L 17.699219 -30.199219 L 17.699219 -46.5 C 17.699219 -53.800781 19.800781 -55.601562 24.300781 -55.601562 L 24.300781 -57.300781 L 3.601562 -57.300781 L 3.601562 -55.601562 C 8.699219 -55.601562 10.101562 -53.300781 10.101562 -46.5 L 10.101562 -10.800781 C 10.101562 -3.199219 8 -1.699219 3.601562 -1.699219 L 3.601562 0 L 24.300781 0 L 24.300781 -1.699219 C 19.398438 -1.699219 17.699219 -3.898438 17.699219 -10.800781 L 17.699219 -27.398438 Z M 48.898438 -27.398438 "/>
</g>
<g id="glyph-0-3">
<path d="M 14.898438 -36.398438 L 13.199219 -36.398438 L 1.398438 -35.300781 L 1.398438 -33.601562 C 6.601562 -33.601562 8.101562 -33.199219 8.101562 -28.300781 L 8.101562 -6.601562 C 8.101562 -2.398438 6.800781 -1.699219 1.398438 -1.699219 L 1.398438 0 L 20.800781 0 L 20.800781 -1.699219 C 15.800781 -1.699219 14.898438 -3.101562 14.898438 -6.601562 Z M 11.601562 -54.699219 C 9.199219 -54.699219 7.199219 -52.800781 7.199219 -50.398438 C 7.199219 -48 9.199219 -46 11.601562 -46 C 14 -46 15.898438 -48 15.898438 -50.398438 C 15.898438 -52.800781 14 -54.699219 11.601562 -54.699219 Z M 11.601562 -54.699219 "/>
</g>
<g id="glyph-0-4">
<path d="M 26.199219 -25.5 L 26.199219 -36.398438 L 24.5 -36.398438 C 24 -35.199219 23.300781 -34.699219 22.398438 -34.699219 C 20 -34.699219 18.898438 -36.398438 15.199219 -36.398438 C 9.300781 -36.398438 4.398438 -31.699219 4.398438 -26.199219 C 4.398438 -14.199219 23.199219 -16.898438 23.199219 -7 C 23.199219 -3.5 20.5 -0.898438 17 -0.898438 C 12.601562 -0.898438 7.101562 -3.800781 5.601562 -11.199219 L 3.898438 -11.199219 L 3.898438 0.898438 L 5.601562 0.898438 C 5.699219 -0.398438 6.601562 -1.5 7.898438 -1.5 C 9.601562 -1.5 13 1.101562 16.898438 1.101562 C 23 1.101562 28.101562 -3.898438 28.101562 -9.800781 C 28.101562 -23 9.5 -20.601562 9.5 -29.601562 C 9.5 -32.5 11.898438 -34.398438 15.398438 -34.398438 C 19.601562 -34.398438 23.5 -31.398438 24.199219 -25.5 Z M 26.199219 -25.5 "/>
</g>
<g id="glyph-0-5">
<path d="M 15.101562 -47.398438 L 13.398438 -47.398438 C 10.398438 -41.300781 6.398438 -37 1.601562 -34.601562 L 1.601562 -32.898438 L 8.300781 -32.898438 L 8.300781 -9.199219 C 8.300781 -3.101562 12.5 1.101562 18.5 1.101562 C 22.5 1.101562 26.101562 -0.898438 29.199219 -4.800781 L 28.101562 -6.101562 C 26 -3.699219 24.101562 -2.699219 21.5 -2.699219 C 17.601562 -2.699219 15.101562 -5.199219 15.101562 -10.101562 L 15.101562 -32.898438 L 27.398438 -32.898438 L 27.398438 -35.5 L 15.101562 -35.5 Z M 15.101562 -47.398438 "/>
</g>
<g id="glyph-0-6">
<path d="M 42.300781 -17.601562 C 42.300781 -28.398438 34 -36.398438 22.898438 -36.398438 C 11.800781 -36.398438 3.5 -28.398438 3.5 -17.601562 C 3.5 -6.898438 11.800781 1.101562 22.898438 1.101562 C 34 1.101562 42.300781 -6.898438 42.300781 -17.601562 Z M 34.898438 -17.601562 C 34.898438 -9 31.300781 -0.898438 22.898438 -0.898438 C 14.699219 -0.898438 10.898438 -8.5 10.898438 -17.601562 C 10.898438 -27.800781 15.398438 -34.398438 22.898438 -34.398438 C 31.101562 -34.398438 34.898438 -26.5 34.898438 -17.601562 Z M 34.898438 -17.601562 "/>
</g>
<g id="glyph-0-7">
<path d="M 14.800781 -26.101562 C 18 -29.199219 20 -30.398438 22.300781 -30.398438 C 24.699219 -30.398438 27.800781 -28.898438 30.699219 -27.300781 L 33.398438 -33.601562 C 31.601562 -35.199219 28.898438 -36.398438 26.898438 -36.398438 C 24.5 -36.398438 21.398438 -34.398438 14.800781 -28.699219 L 14.800781 -36.398438 L 13.101562 -36.398438 L 0.699219 -35.300781 L 0.699219 -33.601562 C 6.699219 -33.601562 8 -33 8 -27.800781 L 8 -8.5 C 8 -3.101562 7.398438 -1.699219 2 -1.699219 L 2 0 L 20.699219 0 L 20.699219 -1.699219 C 16 -1.699219 14.800781 -2.800781 14.800781 -6.699219 Z M 14.800781 -26.101562 "/>
</g>
<g id="glyph-0-8">
<path d="M 16.101562 -28.199219 C 14.800781 -31.199219 15.898438 -33.199219 18.601562 -33.601562 L 18.601562 -35.300781 L 1.601562 -35.300781 L 1.601562 -33.601562 C 5.699219 -33.5 7 -32.398438 8.800781 -28.300781 L 21.5 1 L 16.898438 13.800781 C 14.699219 20 12.199219 22.5 7.898438 22.5 C 6.699219 22.5 5.898438 22.300781 4.5 21.699219 L 2.199219 27.800781 C 4 28.898438 5.101562 29.300781 6.601562 29.300781 C 10.898438 29.300781 15.5 24.601562 18.300781 16.398438 L 32.398438 -25.300781 C 34.398438 -31.199219 36.699219 -33.601562 40.5 -33.601562 L 40.5 -35.300781 L 28 -35.300781 L 28 -33.601562 C 31.898438 -33.398438 32.199219 -31.101562 30.800781 -26.898438 L 24.601562 -8.199219 Z M 16.101562 -28.199219 "/>
</g>
<g id="glyph-0-9">
<path d="M 14.699219 -32.699219 L 23.5 -32.699219 L 23.5 -35.300781 L 14.699219 -35.300781 L 14.699219 -52.398438 C 14.699219 -57.800781 17.398438 -60.699219 21.300781 -60.699219 C 25.5 -60.699219 28.5 -57.699219 28 -51 L 29.699219 -51 L 33.101562 -59.898438 C 30.699219 -61.699219 27 -62.800781 23.101562 -62.800781 C 12 -62.800781 7.898438 -52.398438 7.898438 -43.800781 L 7.898438 -36.800781 C 6.398438 -35.800781 5.398438 -35.398438 3 -34.398438 L 3 -32.699219 L 7.898438 -32.699219 L 7.898438 -6.398438 C 7.898438 -3 6.601562 -1.699219 3 -1.699219 L 1.398438 -1.699219 L 1.398438 0 L 21.5 0 L 21.5 -1.699219 L 19.800781 -1.699219 C 16.5 -1.699219 14.699219 -3 14.699219 -7 Z M 14.699219 -32.699219 "/>
</g>
<g id="glyph-0-10">
<path d="M 37.5 -24.101562 C 37.5 -32.5 31.601562 -36.398438 25.699219 -36.398438 C 21.101562 -36.398438 17.800781 -34.5 13.300781 -29.300781 L 13.300781 -62.800781 L 11.601562 -62.800781 L 0.199219 -61.601562 L 0.199219 -59.898438 C 5.199219 -59.898438 6.5 -59.199219 6.5 -54.601562 L 6.5 -8.5 C 6.5 -2.800781 5.5 -1.800781 0.199219 -1.699219 L 0.199219 0 L 19.199219 0 L 19.199219 -1.699219 C 14.800781 -1.699219 13.300781 -2.800781 13.300781 -6.5 L 13.300781 -25.898438 C 16.699219 -30.699219 19.601562 -32.601562 23.601562 -32.601562 C 27.898438 -32.601562 30.699219 -29.601562 30.699219 -24.898438 L 30.699219 -7.398438 C 30.699219 -2.800781 29.601562 -1.699219 24.800781 -1.699219 L 24.800781 0 L 43.199219 0 L 43.199219 -1.699219 C 38.5 -1.699219 37.5 -3.101562 37.5 -8.5 Z M 37.5 -24.101562 "/>
</g>
<g id="glyph-0-11">
<path d="M 36.699219 -21.601562 C 37.199219 -29.800781 29.601562 -36.398438 21.398438 -36.398438 C 11.398438 -36.398438 3.601562 -28 3.601562 -17.300781 C 3.601562 -6.601562 11.601562 1.101562 22.699219 1.101562 C 28.898438 1.101562 33 -1 37.300781 -6.5 L 37.300781 -9.101562 C 32.199219 -3.398438 29.699219 -1.699219 24.800781 -1.699219 C 20 -1.699219 10.5 -5.699219 10.699219 -21.601562 Z M 10.699219 -23.300781 C 11.101562 -29.898438 14.601562 -34.300781 20.5 -34.300781 C 25 -34.300781 30.300781 -31.101562 30 -23.300781 Z M 10.699219 -23.300781 "/>
</g>
<g id="glyph-0-12">
<path d="M 48.800781 0 L 62.898438 0 L 62.898438 -1.699219 C 58.5 -1.699219 56.398438 -3.300781 56.398438 -10.800781 L 56.398438 -46.5 C 56.398438 -53.398438 58.101562 -55.601562 62.898438 -55.601562 L 62.898438 -57.300781 L 42.699219 -57.300781 L 42.699219 -55.601562 C 47.300781 -55.398438 48.800781 -53.101562 48.800781 -46.5 L 48.800781 -12 C 44.800781 -5.800781 39 -2.5 32.398438 -2.5 C 22.699219 -2.5 17.800781 -8.800781 17.800781 -17.601562 L 17.800781 -46.601562 C 17.800781 -53.898438 19.699219 -55.601562 24.398438 -55.601562 L 24.398438 -57.300781 L 3.699219 -57.300781 L 3.699219 -55.601562 C 8.199219 -55.601562 10.199219 -54.101562 10.199219 -46.5 L 10.199219 -18.300781 C 10.199219 -8.398438 15.800781 1.398438 29.699219 1.398438 C 37.300781 1.398438 43.300781 -1.601562 48.800781 -8 Z M 48.800781 0 "/>
</g>
<g id="glyph-0-13">
<path d="M 38.5 -23.699219 C 38.5 -32.199219 32.398438 -36.398438 26.5 -36.398438 C 22 -36.398438 17.898438 -34.101562 13.699219 -29.300781 L 13.699219 -36.398438 L 12 -36.398438 L 1 -35.300781 L 1 -33.601562 C 5.800781 -33.601562 6.898438 -32.699219 6.898438 -28.398438 L 6.898438 -8.5 C 6.898438 -2.101562 5.699219 -1.699219 1 -1.699219 L 1 0 L 19.699219 0 L 19.699219 -1.699219 C 14.398438 -1.699219 13.699219 -3.101562 13.699219 -8.5 L 13.699219 -25.800781 C 17.199219 -30.5 20.300781 -32.699219 23.800781 -32.699219 C 27.601562 -32.699219 31.699219 -30.300781 31.699219 -24.601562 L 31.699219 -6.101562 C 31.699219 -2.800781 30.398438 -1.699219 25.601562 -1.699219 L 25.601562 0 L 44.5 0 L 44.5 -1.699219 C 39.5 -1.699219 38.5 -3.101562 38.5 -7.699219 Z M 38.5 -23.699219 "/>
</g>
<g id="glyph-0-14">
<path d="M 16 -27.5 C 14.398438 -31.398438 15.300781 -33.300781 18.699219 -33.601562 L 18.699219 -35.300781 L 1.601562 -35.300781 L 1.601562 -33.601562 C 5.800781 -33.398438 6.699219 -32.800781 9.101562 -27 L 20.398438 0.800781 L 22.101562 0.800781 L 33.5 -28.5 C 35.199219 -32.300781 36.199219 -33.199219 40.300781 -33.601562 L 40.300781 -35.300781 L 27.300781 -35.300781 L 27.300781 -33.601562 C 32.5 -33.199219 32.5 -31.101562 30.800781 -26.5 L 23.898438 -8.601562 Z M 16 -27.5 "/>
</g>
<g id="glyph-0-15">
<path d="M 35.601562 -58.101562 L 34 -58.101562 C 33.601562 -56.699219 33.398438 -56.5 32.5 -56.5 C 30.300781 -56.5 27.398438 -58.699219 21.300781 -58.699219 C 12 -58.699219 5.699219 -52.699219 5.699219 -43.898438 C 5.699219 -39.398438 7.101562 -35.398438 10.601562 -31.898438 C 17 -25.5 32.398438 -20.898438 32.398438 -11 C 32.398438 -4.800781 27.800781 -0.800781 20.898438 -0.800781 C 15.898438 -0.800781 7.199219 -4.300781 7.101562 -14.898438 L 5.398438 -14.898438 L 5.398438 0.601562 L 7.101562 0.601562 C 7.601562 -0.898438 8.300781 -1.601562 9.300781 -1.601562 C 11.199219 -1.601562 16.300781 1.398438 22.398438 1.398438 C 31.398438 1.398438 38.699219 -5.898438 38.699219 -14.898438 C 38.699219 -18.699219 37.699219 -22.300781 33.699219 -26.300781 C 25.5 -34.5 10.898438 -37.300781 10.898438 -47.898438 C 10.898438 -53.199219 15.199219 -56.5 21.199219 -56.5 C 27 -56.5 33 -53.199219 33.898438 -44.699219 L 35.601562 -44.699219 Z M 35.601562 -58.101562 "/>
</g>
<g id="glyph-0-16">
<path d="M 38.5 -36.398438 L 36.800781 -36.398438 L 24.800781 -35.300781 L 24.800781 -33.601562 C 30.898438 -33.5 31.699219 -32.898438 31.699219 -28 L 31.699219 -8.898438 C 28.800781 -5 25.699219 -3.101562 22.300781 -3.101562 C 17.5 -3.101562 14.300781 -6.101562 14.300781 -11.101562 L 14.300781 -36.398438 L 12.601562 -36.398438 L 1.199219 -35.300781 L 1.199219 -33.601562 C 6.300781 -33.601562 7.5 -32.300781 7.5 -28.898438 L 7.5 -10.800781 C 7.5 -4.199219 12.101562 1.101562 19.101562 1.101562 C 23.898438 1.101562 28 -1.199219 31.5 -5.800781 L 31.699219 -5.800781 L 31.699219 0.699219 L 44.601562 0 L 44.601562 -1.699219 C 39.800781 -1.699219 38.5 -2.800781 38.5 -6.699219 Z M 38.5 -36.398438 "/>
</g>
<g id="glyph-0-17">
<path d="M 25.601562 -19.898438 L 31.5 -26.898438 C 35.800781 -32 37.5 -33.101562 41.898438 -33.601562 L 41.898438 -35.300781 L 27.898438 -35.300781 L 27.898438 -33.601562 C 31.5 -33.601562 31.300781 -30.601562 28.800781 -27.601562 L 24 -21.699219 L 19.300781 -28.300781 C 17 -31.5 17.398438 -33.300781 21 -33.601562 L 21 -35.300781 L 1.5 -35.300781 L 1.5 -33.601562 C 6 -33.300781 7.699219 -32.300781 11.300781 -27.601562 L 19.699219 -16.601562 L 12 -7.5 C 7.5 -2.101562 6.101562 -1.699219 1.5 -1.699219 L 1.5 0 L 15.898438 0 L 15.898438 -1.699219 C 13 -1.898438 12.601562 -4.101562 14.699219 -6.699219 L 21 -14.601562 L 27.199219 -6.101562 C 28.800781 -3.898438 28.800781 -2.199219 25.601562 -1.699219 L 25.601562 0 L 44.199219 0 L 44.199219 -1.699219 C 40.898438 -1.699219 38.601562 -2.898438 36.300781 -5.898438 Z M 25.601562 -19.898438 "/>
</g>
</g>
</defs>
<g fill="rgb(7.843137%, 9.019608%, 11.372549%)" fill-opacity="1">
<use xlink:href="#glyph-0-0" x="16" y="79.796875"/>
<use xlink:href="#glyph-0-1" x="75.40625" y="79.796875"/>
<use xlink:href="#glyph-0-2" x="97.90625" y="79.796875"/>
<use xlink:href="#glyph-0-3" x="164.609375" y="79.796875"/>
<use xlink:href="#glyph-0-4" x="187.515625" y="79.796875"/>
<use xlink:href="#glyph-0-5" x="218.8125" y="79.796875"/>
<use xlink:href="#glyph-0-6" x="248.015625" y="79.796875"/>
<use xlink:href="#glyph-0-7" x="293.8125" y="79.796875"/>
<use xlink:href="#glyph-0-8" x="329.21875" y="79.796875"/>
<use xlink:href="#glyph-0-1" x="370.921875" y="79.796875"/>
<use xlink:href="#glyph-0-6" x="393.421875" y="79.796875"/>
<use xlink:href="#glyph-0-9" x="439.21875" y="79.796875"/>
<use xlink:href="#glyph-0-1" x="465.21875" y="79.796875"/>
<use xlink:href="#glyph-0-5" x="487.71875" y="79.796875"/>
<use xlink:href="#glyph-0-10" x="516.921875" y="79.796875"/>
<use xlink:href="#glyph-0-11" x="560.71875" y="79.796875"/>
<use xlink:href="#glyph-0-1" x="601.3125" y="79.796875"/>
<use xlink:href="#glyph-0-12" x="623.8125" y="79.796875"/>
<use xlink:href="#glyph-0-13" x="690.515625" y="79.796875"/>
<use xlink:href="#glyph-0-3" x="736.3125" y="79.796875"/>
<use xlink:href="#glyph-0-14" x="759.21875" y="79.796875"/>
<use xlink:href="#glyph-0-11" x="798.921875" y="79.796875"/>
<use xlink:href="#glyph-0-7" x="839.515625" y="79.796875"/>
<use xlink:href="#glyph-0-4" x="875.921875" y="79.796875"/>
<use xlink:href="#glyph-0-3" x="907.21875" y="79.796875"/>
<use xlink:href="#glyph-0-5" x="930.125" y="79.796875"/>
<use xlink:href="#glyph-0-8" x="959.328125" y="79.796875"/>
<use xlink:href="#glyph-0-1" x="1001.03125" y="79.796875"/>
<use xlink:href="#glyph-0-6" x="1023.53125" y="79.796875"/>
<use xlink:href="#glyph-0-9" x="1069.328125" y="79.796875"/>
<use xlink:href="#glyph-0-1" x="1095.328125" y="79.796875"/>
<use xlink:href="#glyph-0-15" x="1117.828125" y="79.796875"/>
<use xlink:href="#glyph-0-16" x="1159.53125" y="79.796875"/>
<use xlink:href="#glyph-0-4" x="1205.328125" y="79.796875"/>
<use xlink:href="#glyph-0-4" x="1236.625" y="79.796875"/>
<use xlink:href="#glyph-0-11" x="1267.921875" y="79.796875"/>
<use xlink:href="#glyph-0-17" x="1308.515625" y="79.796875"/>
</g>
</svg>
